<mxfile host="app.diagrams.net" modified="2023-07-08T13:42:36.123Z" agent="Mozilla/5.0 (Macintosh; Intel Mac OS X 10_15_7) AppleWebKit/537.36 (KHTML, like Gecko) Chrome/114.0.0.0 Safari/537.36" version="21.6.1" etag="fH5g1Ck7poN-go04mUCc" type="github">
  <diagram name="ページ1" id="QbjGU-q-JKNnjnOUpPLo">
    <mxGraphModel>
      <root>
        <mxCell id="0" />
        <mxCell id="1" parent="0" />
      </root>
    </mxGraphModel>
  </diagram>
</mxfile>
